{
    "asset" : {
        "generator" : "Khronos glTF Blender I/O v1.6.16",
        "version" : "2.0"
    },
    "scene" : 0,
    "scenes" : [
        {
            "name" : "Scene",
            "nodes" : [
                0,
                1,
                2
            ]
        }
    ],
    "nodes" : [
        {
            "mesh" : 0,
            "name" : "Default",
            "rotation" : [
                0.7071068286895752,
                0,
                0,
                0.7071067094802856
            ]
        },
        {
            "mesh" : 1,
            "name" : "Extrusion",
            "rotation" : [
                0.7071068286895752,
                0,
                0,
                0.7071067094802856
            ]
        },
        {
            "mesh" : 2,
            "name" : "Extrusion.1",
            "rotation" : [
                0.7071068286895752,
                0,
                0,
                0.7071067094802856
            ]
        }
    ],
    "materials" : [
        {
            "doubleSided" : true,
            "name" : "plastic",
            "pbrMetallicRoughness" : {
                "baseColorFactor" : [
                    0.800000011920929,
                    0.800000011920929,
                    0.800000011920929,
                    1
                ],
                "metallicFactor" : 0,
                "roughnessFactor" : 0.5
            }
        },
        {
            "doubleSided" : true,
            "name" : "default",
            "pbrMetallicRoughness" : {
                "baseColorFactor" : [
                    0.800000011920929,
                    0.800000011920929,
                    0.800000011920929,
                    1
                ],
                "metallicFactor" : 0,
                "roughnessFactor" : 0.5
            }
        }
    ],
    "meshes" : [
        {
            "name" : "Default",
            "primitives" : [
                {
                    "attributes" : {
                        "POSITION" : 0,
                        "NORMAL" : 1,
                        "TEXCOORD_0" : 2
                    },
                    "indices" : 3,
                    "material" : 0
                }
            ]
        },
        {
            "name" : "Extrusion",
            "primitives" : [
                {
                    "attributes" : {
                        "POSITION" : 4,
                        "NORMAL" : 5,
                        "TEXCOORD_0" : 6
                    },
                    "indices" : 7,
                    "material" : 1
                }
            ]
        },
        {
            "name" : "Extrusion.1",
            "primitives" : [
                {
                    "attributes" : {
                        "POSITION" : 8,
                        "NORMAL" : 9,
                        "TEXCOORD_0" : 10
                    },
                    "indices" : 11,
                    "material" : 1
                }
            ]
        }
    ],
    "accessors" : [
        {
            "bufferView" : 0,
            "componentType" : 5126,
            "count" : 45565,
            "max" : [
                13.88540267944336,
                1.68340003490448,
                -0.04915999993681908
            ],
            "min" : [
                -13.88540267944336,
                -0.38019999861717224,
                -25.881559371948242
            ],
            "type" : "VEC3"
        },
        {
            "bufferView" : 1,
            "componentType" : 5126,
            "count" : 45565,
            "type" : "VEC3"
        },
        {
            "bufferView" : 2,
            "componentType" : 5126,
            "count" : 45565,
            "type" : "VEC2"
        },
        {
            "bufferView" : 3,
            "componentType" : 5123,
            "count" : 271452,
            "type" : "SCALAR"
        },
        {
            "bufferView" : 4,
            "componentType" : 5126,
            "count" : 12982,
            "max" : [
                8.516698837280273,
                1.6010890007019043,
                -16.59621810913086
            ],
            "min" : [
                -8.721582412719727,
                1.5010889768600464,
                -19.176795959472656
            ],
            "type" : "VEC3"
        },
        {
            "bufferView" : 5,
            "componentType" : 5126,
            "count" : 12982,
            "type" : "VEC3"
        },
        {
            "bufferView" : 6,
            "componentType" : 5126,
            "count" : 12982,
            "type" : "VEC2"
        },
        {
            "bufferView" : 7,
            "componentType" : 5123,
            "count" : 38052,
            "type" : "SCALAR"
        },
        {
            "bufferView" : 8,
            "componentType" : 5126,
            "count" : 6054,
            "max" : [
                3.9760589599609375,
                1.5010889768600464,
                -14.024151802062988
            ],
            "min" : [
                -4.180941104888916,
                1.4010889530181885,
                -14.946151733398438
            ],
            "type" : "VEC3"
        },
        {
            "bufferView" : 9,
            "componentType" : 5126,
            "count" : 6054,
            "type" : "VEC3"
        },
        {
            "bufferView" : 10,
            "componentType" : 5126,
            "count" : 6054,
            "type" : "VEC2"
        },
        {
            "bufferView" : 11,
            "componentType" : 5123,
            "count" : 17184,
            "type" : "SCALAR"
        }
    ],
    "bufferViews" : [
        {
            "buffer" : 0,
            "byteLength" : 546780,
            "byteOffset" : 0
        },
        {
            "buffer" : 0,
            "byteLength" : 546780,
            "byteOffset" : 546780
        },
        {
            "buffer" : 0,
            "byteLength" : 364520,
            "byteOffset" : 1093560
        },
        {
            "buffer" : 0,
            "byteLength" : 542904,
            "byteOffset" : 1458080
        },
        {
            "buffer" : 0,
            "byteLength" : 155784,
            "byteOffset" : 2000984
        },
        {
            "buffer" : 0,
            "byteLength" : 155784,
            "byteOffset" : 2156768
        },
        {
            "buffer" : 0,
            "byteLength" : 103856,
            "byteOffset" : 2312552
        },
        {
            "buffer" : 0,
            "byteLength" : 76104,
            "byteOffset" : 2416408
        },
        {
            "buffer" : 0,
            "byteLength" : 72648,
            "byteOffset" : 2492512
        },
        {
            "buffer" : 0,
            "byteLength" : 72648,
            "byteOffset" : 2565160
        },
        {
            "buffer" : 0,
            "byteLength" : 48432,
            "byteOffset" : 2637808
        },
        {
            "buffer" : 0,
            "byteLength" : 34368,
            "byteOffset" : 2686240
        }
    ],
    "buffers" : [
        {
            "byteLength" : 2720608,
            "uri" : "data:application/octet-stream;base64,"
        }
    ]
}
