{
    "asset" : {
        "generator" : "Khronos glTF Blender I/O v1.6.16",
        "version" : "2.0"
    },
    "scene" : 0,
    "scenes" : [
        {
            "name" : "Scene",
            "nodes" : [
                0
            ]
        }
    ],
    "nodes" : [
        {
            "mesh" : 0,
            "name" : "Torus"
        }
    ],
    "meshes" : [
        {
            "name" : "Torus",
            "primitives" : [
                {
                    "attributes" : {
                        "POSITION" : 0,
                        "NORMAL" : 1,
                        "TEXCOORD_0" : 2
                    },
                    "indices" : 3
                }
            ]
        }
    ],
    "accessors" : [
        {
            "bufferView" : 0,
            "componentType" : 5126,
            "count" : 2483,
            "max" : [
                1.0954009294509888,
                0.23883549869060516,
                1.2353025674819946
            ],
            "min" : [
                -1.2353029251098633,
                -0.23883549869060516,
                -1.2353026866912842
            ],
            "type" : "VEC3"
        },
        {
            "bufferView" : 1,
            "componentType" : 5126,
            "count" : 2483,
            "type" : "VEC3"
        },
        {
            "bufferView" : 2,
            "componentType" : 5126,
            "count" : 2483,
            "type" : "VEC2"
        },
        {
            "bufferView" : 3,
            "componentType" : 5123,
            "count" : 13104,
            "type" : "SCALAR"
        }
    ],
    "bufferViews" : [
        {
            "buffer" : 0,
            "byteLength" : 29796,
            "byteOffset" : 0
        },
        {
            "buffer" : 0,
            "byteLength" : 29796,
            "byteOffset" : 29796
        },
        {
            "buffer" : 0,
            "byteLength" : 19864,
            "byteOffset" : 59592
        },
        {
            "buffer" : 0,
            "byteLength" : 26208,
            "byteOffset" : 79456
        }
    ],
    "buffers" : [
        {
            "byteLength" : 105664,
            "uri" : "data:application/octet-stream;base64,"
        }
    ]
}
