<svg enable-background="new 0 0 170.05 170.05" version="1.1" viewBox="0 0 170.05 170.05" xml:space="preserve" xmlns="http://www.w3.org/2000/svg">
	<style type="text/css">
	.st0{fill:#191414;}
</style>
	<path class="st0" d="m85.03 1.28c-46.25 0-83.74 37.49-83.74 83.74s37.49 83.74 83.74 83.74 83.74-37.49 83.74-83.74-37.49-83.74-83.74-83.74zm38.4 120.79c-1.5 2.47-4.72 3.24-7.18 1.74-19.67-12.02-44.42-14.73-73.57-8.07-2.81 0.64-5.61-1.12-6.25-3.92-0.64-2.81 1.11-5.61 3.93-6.25 31.9-7.29 59.26-4.15 81.34 9.33 2.46 1.49 3.24 4.71 1.73 7.17zm10.25-22.8c-1.89 3.07-5.91 4.04-8.98 2.15-22.5-13.83-56.82-17.84-83.45-9.76-3.45 1.04-7.1-0.9-8.15-4.35-1.04-3.45 0.91-7.09 4.35-8.14 30.42-9.23 68.23-4.76 94.07 11.13 3.08 1.88 4.04 5.9 2.16 8.97zm0.88-23.75c-26.99-16.03-71.52-17.5-97.29-9.68-4.14 1.26-8.51-1.08-9.77-5.22-1.25-4.14 1.08-8.51 5.22-9.77 29.58-8.98 78.76-7.24 109.83 11.2 3.72 2.21 4.94 7.02 2.74 10.73-2.2 3.72-7.02 4.95-10.73 2.74z" />
</svg>